<svg width="671" height="701" viewBox="0 0 671 701" fill="none" xmlns="http://www.w3.org/2000/svg">
<g clip-path="url(#clip0_387_1995)">
<g opacity="0.06">
<path opacity="0.06" d="M244.147 23.9602L61.4662 242.936C37.1755 272.057 45.0699 314.482 78.4553 334.173L408.509 528.829C445.137 550.438 493.678 534.041 507.186 495.502L586.876 268.111C595.214 244.326 587.574 218.173 567.452 201.681L340.368 15.4404C311.66 -8.14119 267.681 -4.24499 244.147 23.9602Z" fill="#001D2B"/>
</g>
<path d="M376.179 607.406L374.984 649.363L359.225 649.198C359.225 649.198 355.37 608.308 355.778 604.736C356.187 601.163 376.179 607.406 376.179 607.406Z" fill="#F6A588"/>
<path d="M260.753 615.757C260.753 615.757 264.827 653.952 263.438 656.951C262.048 659.95 278.972 660.698 278.743 659.078C278.514 657.459 281.124 615.189 280.984 614.237C280.845 613.285 260.753 615.757 260.753 615.757Z" fill="#F6A588"/>
<path d="M186.476 235.273C186.476 235.273 182.68 230.529 181.789 225.009C180.897 219.489 182.028 207.665 174.467 206.684C166.907 205.702 152.712 210.555 154.769 219.962C156.826 229.369 174.557 239.393 178.87 240.838C183.184 242.283 186.476 235.273 186.476 235.273Z" fill="#F6A588"/>
<path d="M341.34 178.678C340.797 194.088 337.44 209.275 337.44 209.275C337.44 209.275 312.362 219.175 316.795 208.193C317.866 205.548 318.224 202.215 318.145 198.727C317.911 187.766 313.418 174.966 313.418 174.966C313.418 174.966 336.543 142.581 340.274 161.065C341.335 166.346 341.569 172.53 341.34 178.678Z" fill="#F6A588"/>
<g style="mix-blend-mode:color-burn" opacity="0.76">
<g style="mix-blend-mode:color-burn" opacity="0.76">
<path d="M341.34 178.678C338.057 188.857 331.353 197.651 318.145 198.747C317.911 187.786 313.418 174.986 313.418 174.986C313.418 174.986 336.543 142.601 340.274 161.085C341.335 166.347 341.569 172.53 341.34 178.678Z" fill="#E69DC4"/>
</g>
</g>
<path d="M441.092 233.868C435.18 248.511 431.475 268.944 409.913 269.208C388.352 269.472 353.034 223.898 338.491 220.595C323.947 217.291 338.047 164.369 342.057 151.115C346.066 137.862 346.574 103.838 339.313 102.184C341.016 96.9911 344.528 92.5844 349.209 89.7674C353.194 87.351 358.638 85.662 366.084 85.9958C388.352 86.9923 397.357 114.091 397.8 124.534C398.244 134.977 411.418 167.771 419.92 183.102C424.507 191.383 432.023 201.253 437.038 210.889C441.331 219.095 443.787 227.131 441.092 233.868Z" fill="#003F5F"/>
<g style="mix-blend-mode:color-burn" opacity="0.76">
<g style="mix-blend-mode:color-burn" opacity="0.76">
<path d="M441.092 233.868C435.18 248.511 431.475 268.944 409.913 269.208C388.352 269.472 353.034 223.898 338.491 220.595C323.947 217.291 338.047 164.369 342.057 151.115C346.066 137.862 346.574 103.838 339.313 102.183C341.016 96.9911 344.528 92.5843 349.209 89.7674C358.782 91.0778 380.986 136.482 369.177 158.459C346.973 199.783 346.031 208.453 384.407 219.155C404.086 224.635 423.257 215.263 437.038 210.889C441.331 219.095 443.787 227.131 441.092 233.868Z" fill="#E69DC4"/>
</g>
</g>
<path d="M316.729 184.877C334.029 184.136 347.284 165.562 346.336 143.39C345.388 121.218 330.594 103.844 313.294 104.585C295.994 105.325 282.739 123.899 283.687 146.071C284.635 168.243 299.429 185.617 316.729 184.877Z" fill="#F6A588"/>
<path d="M288.619 154.693C288.619 154.693 283.564 126.871 293.351 127.673C296.837 127.962 291.653 149.098 315.6 148.525C315.6 148.525 300.961 131.903 306.57 131.031C310.47 130.429 317.378 149.322 334.217 150.782C341.409 151.404 339.86 160.348 340.139 166.875C340.418 173.402 336.753 179.45 341.947 178.573C347.142 177.696 374.755 166.053 370.337 139.427C365.919 112.801 351.61 99.0247 335.184 97.1065C318.757 95.1883 289.446 97.7592 283.076 116.996C276.706 136.233 280.541 149.172 288.619 154.693Z" fill="#575A89"/>
<path d="M280.217 218.507C280.217 218.507 303.292 207.71 309.105 205.503C314.917 203.296 371.433 210.685 376.767 213.071C382.101 215.458 358.473 320.461 358.473 320.461L292.34 318.055C292.34 318.055 275.515 230.485 280.217 218.507Z" fill="#EFA30E"/>
<path d="M329.188 262.511C328.933 262.519 328.685 262.427 328.499 262.253C328.312 262.079 328.202 261.839 328.191 261.585L325.955 209.359C325.959 209.112 326.058 208.875 326.231 208.698C326.404 208.52 326.639 208.416 326.886 208.406C327.134 208.395 327.376 208.48 327.563 208.643C327.75 208.805 327.868 209.033 327.893 209.28L330.124 261.505C330.127 261.761 330.031 262.008 329.857 262.195C329.683 262.383 329.443 262.496 329.188 262.511Z" fill="#575A89"/>
<path d="M287.384 217.55C287.384 217.55 286.507 212.354 269.643 230.734C252.778 249.114 228.378 271.649 223.044 269.287C217.71 266.926 193.772 230.056 188.573 230.275C183.373 230.495 173.327 240.738 173.441 243.349C173.556 245.96 214.243 310.312 220.299 313.237C237.732 321.647 292.519 275.54 299.422 269.357C306.325 263.174 287.384 217.55 287.384 217.55Z" fill="#EFA30E"/>
<path d="M317.497 203.181L326.771 206.011L331.966 203.146L347.456 208.114L336.125 218.407L326.911 209.319L318.18 219.175L305.549 206.973L317.497 203.181Z" fill="#575A89"/>
<path d="M387.212 472.922C388.651 521.914 385.145 623.435 385.145 623.435C385.145 623.435 344.627 623.858 344.518 621.247C344.408 618.637 333.296 404.594 330.547 401.445C327.798 398.296 311.67 495.114 310.669 502.358C309.668 509.602 294.731 619.444 290.811 618.945C289.173 618.741 282.055 619.444 274.41 619.832C263.632 620.365 251.803 620.241 252.764 615.996C254.413 608.732 266.252 442.111 267.208 434.214C267.208 434.214 276.831 276.841 281.936 274.006L370.651 270.214C370.651 270.214 375.134 328.229 376.369 341.911C376.384 341.93 385.773 423.935 387.212 472.922Z" fill="#575A89"/>
<g style="mix-blend-mode:color-burn" opacity="0.76">
<g style="mix-blend-mode:color-burn" opacity="0.76">
<path d="M330.547 401.445C327.798 398.291 311.671 495.114 310.669 502.358C309.668 509.602 294.731 619.444 290.811 618.945C289.173 618.741 282.055 619.444 274.41 619.832C282.927 564.822 296.823 479.045 305.973 442.106C319.998 385.616 330.547 401.445 330.547 401.445Z" fill="#E69DC4"/>
</g>
</g>
<path d="M293.705 243.115C293.705 243.115 315.217 241.541 315.286 243.17C315.356 244.799 315.237 249.712 315.237 249.712L294.661 250.594C294.661 250.594 291.439 243.538 293.705 243.115Z" fill="#575A89"/>
<path d="M370.681 208.712C370.681 208.712 370.681 209.529 370.681 210.994C370.626 219.354 370.387 248.8 370.009 266.971C369.919 271.201 369.819 274.823 369.715 277.433C369.082 293.158 356.207 282.59 354.818 280.687C353.428 278.784 354.19 204.845 354.19 204.845L370.681 208.712Z" fill="#575A89"/>
<path d="M295.508 208.702C295.508 208.702 300.588 281.743 296.813 285.161C293.037 288.579 280.875 294.349 280.441 284.553C280.008 274.758 280.093 215.244 280.093 215.244C280.093 215.244 292.216 208.188 295.508 208.702Z" fill="#575A89"/>
<path d="M272.173 423.607L287.718 424.204C287.718 424.204 287.265 459.539 283.599 465.558C279.933 471.577 275.705 479.628 257.665 470.59C244.894 464.193 253.122 443.123 259.02 431.369C260.237 428.949 262.124 426.931 264.456 425.555C266.789 424.178 269.468 423.502 272.173 423.607Z" fill="#575A89"/>
<path d="M380.329 420.059L364.226 419.77C364.226 419.77 362.702 455.08 366.019 461.318C369.337 467.556 373.122 475.807 391.635 467.795C404.968 462.026 397.462 439.894 392.213 427.936C391.191 425.625 389.528 423.655 387.422 422.259C385.316 420.863 382.855 420.1 380.329 420.059Z" fill="#575A89"/>
<path d="M372.892 344.367C372.892 344.367 344.731 366.175 347.58 371.61C349.408 375.098 356.471 373.195 357.318 377.734C357.587 379.169 362.109 382.761 366.328 381.929C370.546 381.097 373.076 386.871 374.934 384.505C376.792 382.138 385.254 358.228 385.015 352.677C384.776 347.127 372.892 344.367 372.892 344.367Z" fill="#F6A588"/>
<path d="M338.58 612.344C338.177 617.241 336.09 630.111 339.985 629.941C343.88 629.772 395.923 630.823 396.107 627.545C396.291 624.267 394.444 611.601 394.444 611.601C394.444 611.601 338.795 609.718 338.58 612.344Z" fill="#575A89"/>
<path d="M353.199 153.666C353.278 155.507 352.81 157.329 351.854 158.903C350.897 160.477 349.496 161.732 347.827 162.509C346.157 163.286 344.295 163.551 342.476 163.269C340.656 162.987 338.961 162.172 337.604 160.927C336.248 159.681 335.291 158.062 334.855 156.272C334.419 154.483 334.523 152.604 335.154 150.874C335.785 149.144 336.915 147.639 338.401 146.552C339.887 145.464 341.662 144.841 343.502 144.763C345.968 144.658 348.375 145.536 350.193 147.206C352.012 148.876 353.093 151.199 353.199 153.666Z" fill="#F6A588"/>
<path d="M247.743 613.285C247.743 613.285 247.17 626.738 248.819 626.977C250.467 627.216 298.695 627.62 298.8 626.145C298.904 624.67 299.796 614.984 298.954 614.531C298.112 614.078 248.54 612.762 247.743 613.285Z" fill="#575A89"/>
<path d="M427.859 291.987C426.365 303.167 388.801 357.097 384.772 354.65C380.742 352.204 361.711 350.405 367.274 342.972C372.838 335.538 395.993 295.963 393.219 292.151C391.167 289.346 378.725 276.312 370.681 267.633C371.06 249.462 371.299 220.012 371.354 211.651C374.84 212.05 379.895 214.302 385.011 222.523C394.135 237.181 429.344 280.802 427.859 291.987Z" fill="#EFA30E"/>
<path d="M427.695 682.112C426.365 687.179 362.946 683.353 360.526 682.202C359.868 681.893 359.166 679.357 358.533 675.725C356.745 665.83 355.306 647.778 356.197 644.545C356.282 644.257 356.431 643.991 356.633 643.769C356.835 643.546 357.084 643.372 357.363 643.259C361.263 641.376 373.047 645.217 373.047 645.217C373.256 642.38 373.756 639.572 374.541 636.837C375.348 634.311 376.533 632.179 378.331 632.064C386.301 631.566 383.472 644.625 385.21 647.629C385.349 647.82 385.517 647.988 385.708 648.127C386.774 649.064 389.354 650.593 392.711 652.412C394.026 653.124 395.47 653.907 396.989 654.674C399.27 655.865 401.721 657.115 404.196 658.356C413.983 663.279 424.024 668.146 424.721 668.973C425.678 670.109 427.466 673.687 427.949 677.478C428.16 679.025 428.074 680.598 427.695 682.112Z" fill="#093A5A"/>
<path d="M392.675 652.432C391.375 654.664 388.93 658.789 387.655 660.444C385.872 662.75 381.827 659.616 381.24 655.835C380.831 653.179 383.85 649.856 385.673 648.147C386.738 649.084 389.318 650.613 392.675 652.432Z" fill="#575A89"/>
<path d="M404.161 658.376C403.135 660.145 400.097 665.351 398.622 667.269C396.834 669.586 392.795 666.452 392.207 662.676C391.769 659.846 395.196 656.298 396.954 654.704C399.255 655.885 401.686 657.135 404.161 658.376Z" fill="#575A89"/>
<path d="M427.695 682.112C426.365 687.179 362.946 683.353 360.525 682.202C359.868 681.893 359.166 679.357 358.533 675.725C376.244 676.875 415.577 677.359 427.934 677.493C428.148 679.034 428.067 680.602 427.695 682.112Z" fill="#575A89"/>
<path d="M281.632 682.874C281.477 686.362 281.044 688.773 280.177 689.067C276.87 690.193 218.482 694.817 213.596 689.401C211.105 686.656 210.413 684.469 210.926 682.68C211.439 680.891 213.063 679.566 215.344 678.43C217.242 677.483 223.512 674.085 230.286 670.244C233.11 668.635 236.034 666.956 238.753 665.351L240.925 664.051C244.306 662.023 247.225 660.194 249.053 658.879C250.248 658.017 250.976 657.384 251.075 657.051C251.748 654.809 253.71 637.256 263.029 640.325H263.064C264.244 640.723 264.294 652.527 264.174 654.026C264.065 655.451 276.437 653.03 278.892 654.026C279.01 654.064 279.118 654.129 279.206 654.216C280.217 655.302 282.065 673.149 281.632 682.874Z" fill="#093A5A"/>
<path d="M253.865 665.067C253.675 667.239 250.916 673.403 246.742 670.697C243.953 668.884 241.946 665.854 240.93 664.051C244.312 662.023 247.23 660.194 249.058 658.879C250.971 660.608 253.989 663.577 253.865 665.067Z" fill="#575A89"/>
<path d="M243.186 671.196C242.997 673.368 240.237 679.531 236.064 676.826C233.304 675.037 231.312 672.057 230.286 670.244C233.11 668.635 236.034 666.956 238.753 665.351C240.666 667.105 243.306 669.805 243.186 671.196Z" fill="#575A89"/>
<path d="M281.632 682.874C281.477 686.362 281.044 688.773 280.177 689.067C276.87 690.193 218.482 694.817 213.596 689.401C211.105 686.656 210.413 684.469 210.926 682.68C221.659 682.849 270.903 683.567 281.632 682.874Z" fill="#575A89"/>
<path d="M592.415 447.168L560.19 409.671L597.984 447.502L592.415 447.168Z" fill="#EFA30E"/>
<path d="M613.22 326.585C612.005 326.709 590.005 334.771 592.824 345.951C595.643 357.132 602.785 356.688 589.88 358.871C576.976 361.053 575.795 348.667 574.899 363.524C574.002 378.382 594.911 374.53 590.134 383.643C585.358 392.756 558.457 382.472 557.84 396.069C557.222 409.666 579.197 431.533 604.051 422.356C604.051 422.356 617.359 432.017 633.317 427.876C649.275 423.736 659.172 393.174 646.879 393.239C634.587 393.304 616.587 377.988 632.779 372.178C648.971 366.369 653.618 356.046 641.201 354.895C628.784 353.744 623.649 352.643 628.919 344.297C634.188 335.952 613.22 326.585 613.22 326.585Z" fill="#575A89"/>
<path d="M533.479 383.997C533.977 383.613 545.507 379.233 548.829 385.133C552.151 391.032 549.272 393.393 555.015 389.716C560.758 386.039 556.36 380.205 562.531 386.368C568.702 392.531 559.258 398.366 564.647 400.628C570.037 402.89 576.213 388.74 581.786 394.46C587.359 400.179 587.608 417.618 574.569 422.53C574.569 422.53 573.314 431.533 565.604 435.455C557.894 439.376 542.165 429.58 546.857 425.196C551.548 420.811 552.365 407.658 543.938 410.936C535.511 414.215 529.693 411.37 533.977 406.407C538.26 401.445 539.754 399.123 534.475 397.369C529.195 395.615 533.479 383.997 533.479 383.997Z" fill="#EFA30E"/>
<path d="M614.141 437.497L640.937 393.777L608.159 439.052L614.141 437.497Z" fill="#EFA30E"/>
<path d="M664.336 362.822C663.693 362.562 650.211 360.829 647.9 367.306C645.589 373.783 649.23 375.477 642.177 373.15C635.124 370.823 638.626 364.152 633.272 371.531C627.917 378.91 639.468 382.532 634.103 385.93C628.739 389.328 618.912 376.862 614.111 383.673C609.31 390.484 612.876 407.588 628.132 409.506C628.132 409.506 631.479 418.026 640.693 420.164C649.907 422.301 664.889 409.267 658.822 406.019C652.756 402.77 648.981 390.075 658.862 391.44C668.744 392.805 674.447 388.735 668.724 384.824C663.001 380.913 660.84 378.979 666.189 376.105C671.538 373.23 664.336 362.822 664.336 362.822Z" fill="#EFA30E"/>
<path d="M607.242 398.251L596.399 447.054L601.36 447.452L607.242 398.251Z" fill="#575A89"/>
<path d="M461.015 582.679C453.444 544.374 427.913 438.838 401.073 410.872C387.436 396.662 357.566 381.605 332.569 381.605H331.493C320.844 381.794 312.84 384.799 307.71 390.533C293.655 406.248 305.783 433.382 340.991 464.945C373.619 494.212 387.246 520.19 381.494 542.172C376.862 559.859 360.201 569.769 350.788 571.862C342.321 573.74 331.627 568.245 301.614 549.621C296.135 546.228 289.62 539.482 285.138 539.711C275.869 540.179 258.74 564.882 244.296 582.345L228.074 568.892C228.503 568.394 238.693 556.093 250.129 543.896C273.04 519.437 281.138 516.104 288.798 518.361C293.171 519.647 300.005 523.842 312.706 531.709C322.717 537.922 340.727 551.265 347.202 550.966C350.658 550.811 358.916 545.281 361.118 536.791C363.11 529.073 361.347 511.505 326.92 480.635C299.98 456.47 284.699 433.99 281.497 413.811C278.648 395.875 285.641 383.603 292.006 376.483C301.076 366.344 314.598 360.834 331.114 360.54C363.613 359.967 399.225 378.526 416.259 396.273C452.842 434.393 480.509 572.714 481.665 578.583L461.015 582.679Z" fill="#EAEAEA"/>
<path d="M528.468 587.945C527.179 590.284 525.066 592.059 522.541 592.927L441.645 622.493C438.413 623.674 435.086 623.365 432.77 621.93C432.72 619.404 432.72 617.735 432.72 617.735L437.671 607.924L465.258 553.283L516.266 579.191L523.976 583.112C523.976 583.112 525.908 585.055 528.468 587.945Z" fill="#EFA30E"/>
<path d="M231.348 558.99L197.754 596.107L217.314 613.822L250.908 576.706L231.348 558.99Z" fill="#EFA30E"/>
<path d="M528.469 587.945C527.179 590.284 525.067 592.059 522.542 592.927L441.646 622.493C438.413 623.674 435.086 623.365 432.77 621.93C431.53 621.196 430.578 620.06 430.071 618.711C429.829 618.045 429.708 617.342 429.712 616.634C429.712 613.285 432.377 609.863 436.481 608.358L437.671 607.924L516.266 579.206L517.387 578.792C522.367 576.989 527.527 578.673 528.952 582.574C529.252 583.453 529.363 584.386 529.28 585.311C529.197 586.236 528.92 587.133 528.469 587.945Z" fill="#093A5A"/>
<path d="M240.178 655.67C240.178 667.13 231.337 676.422 220.434 676.422H69.889C58.9813 676.422 50.1406 667.13 50.1406 655.67V591.338C50.1406 579.879 58.9813 570.586 69.889 570.586C69.889 570.586 164.357 570.208 171.993 570.586C232.657 573.596 240.178 655.67 240.178 655.67Z" fill="#FFD248"/>
<path d="M163.963 659.871L0 660.867V631.969C0 620.51 8.83569 611.213 19.7483 611.213C19.7483 611.213 114.212 610.859 121.852 611.213C165.468 613.221 166.469 637.799 163.963 659.871Z" fill="#093A5A"/>
<path d="M251.454 652.596H44.373V684.698H251.454V652.596Z" fill="#093A5A"/>
<path d="M108.498 666.138C108.498 685.39 92.5602 701.015 72.9264 701.015C53.2926 701.015 37.3545 685.405 37.3545 666.138C37.3545 646.872 53.2926 631.262 72.9264 631.262C92.5602 631.262 108.498 646.887 108.498 666.138Z" fill="#EAEAEA"/>
<path d="M72.9266 684.947C62.1584 684.947 53.3975 676.512 53.3975 666.138C53.3975 655.765 62.1584 647.33 72.9266 647.33C83.6948 647.33 92.4508 655.77 92.4508 666.138C92.4508 676.507 83.6948 684.947 72.9266 684.947Z" fill="#093A5A"/>
<path d="M92.0123 577.612C92.0123 579.541 91.2462 581.391 89.8824 582.755C88.5187 584.119 86.6691 584.886 84.7405 584.886C82.8119 584.886 80.9623 584.119 79.5986 582.755C78.2349 581.391 77.4688 579.541 77.4688 577.612V553.537C77.4688 551.608 78.2349 549.757 79.5986 548.393C80.9623 547.029 82.8119 546.263 84.7405 546.263C86.6691 546.263 88.5187 547.029 89.8824 548.393C91.2462 549.757 92.0123 551.608 92.0123 553.537V577.612Z" fill="#FFD248"/>
<path d="M566.8 437.687H647.187C651.446 437.687 655.531 439.379 658.542 442.392C661.553 445.404 663.245 449.49 663.245 453.75V689.65H550.757V453.75C550.757 449.492 552.447 445.409 555.455 442.397C558.463 439.385 562.543 437.691 566.8 437.687Z" fill="#575A89"/>
<path d="M122.365 379.806C133.071 379.806 141.75 371.125 141.75 360.415C141.75 349.705 133.071 341.024 122.365 341.024C111.659 341.024 102.98 349.705 102.98 360.415C102.98 371.125 111.659 379.806 122.365 379.806Z" fill="#EFA30E"/>
<path d="M608.782 222.417C611.242 211.994 604.788 201.55 594.369 199.09C583.949 196.63 573.509 203.085 571.05 213.509C568.59 223.932 575.043 234.376 585.463 236.836C595.883 239.296 606.323 232.841 608.782 222.417Z" fill="#EFA30E"/>
<path d="M153.439 149.461C164.145 149.461 172.824 140.779 172.824 130.07C172.824 119.36 164.145 110.678 153.439 110.678C142.734 110.678 134.055 119.36 134.055 130.07C134.055 140.779 142.734 149.461 153.439 149.461Z" fill="#EFA30E"/>
</g>
<defs>
<clipPath id="clip0_387_1995">
<rect width="671" height="701" fill="white"/>
</clipPath>
</defs>
</svg>
