<svg width="1080" height="1115" viewBox="0 0 1080 1115" fill="none" xmlns="http://www.w3.org/2000/svg">
<path opacity="0.1" d="M836.824 972.932C862.927 972.932 884.088 965.604 884.088 956.565C884.088 947.526 862.927 940.198 836.824 940.198C810.722 940.198 789.561 947.526 789.561 956.565C789.561 965.604 810.722 972.932 836.824 972.932Z" fill="black"/>
<path opacity="0.1" d="M1029.51 972.932C1055.62 972.932 1076.78 965.604 1076.78 956.565C1076.78 947.526 1055.62 940.198 1029.51 940.198C1003.41 940.198 982.25 947.526 982.25 956.565C982.25 965.604 1003.41 972.932 1029.51 972.932Z" fill="black"/>
<path d="M1024.51 350.983V401.263H836.377V354.057H830.924V956.565H836.377V848.701H1024.51V956.565H1029.96V350.983H1024.51ZM1024.51 406.719V489.659H836.377V406.719L1024.51 406.719ZM836.377 666.452V583.512H1024.51V666.452H836.377ZM1024.51 671.908V754.848H836.377V671.908H1024.51ZM836.377 578.057V495.115H1024.51V578.057H836.377ZM836.377 843.246V760.304H1024.51V843.246H836.377Z" fill="#2F2E41"/>
<path d="M777.056 362.955V370.492C777.056 370.492 771.675 372.645 771.675 381.258C771.675 389.871 767.371 422.17 767.371 422.17C767.371 422.17 774.904 428.63 781.361 426.477C784.935 425.391 788.237 423.556 791.047 421.094L792.123 387.718L787.818 379.105V364.032L777.056 362.955Z" fill="#EFA30E"/>
<path d="M982.938 63.6497C982.938 63.6497 964.221 65.8031 964.221 74.4161C964.221 83.0292 949.248 115.328 949.248 115.328C949.248 115.328 975.451 121.788 997.911 119.635C1020.37 117.482 1031.6 114.252 1031.6 114.252L1035.34 80.876L1020.37 72.2629L982.938 63.6497Z" fill="#3F3C38"/>
<path d="M984.762 139.014V118.558C984.762 118.558 962.162 73.3395 980.457 73.3395C998.753 73.3395 1000.91 114.252 1000.91 114.252V143.321L984.762 139.014Z" fill="#FFB8B8"/>
<path d="M791.047 353.265C791.047 353.265 779.209 346.806 777.056 353.265C774.904 359.725 768.447 373.721 777.056 374.798C785.666 375.875 794.275 368.338 794.275 368.338L791.047 353.265Z" fill="#FFB8B8"/>
<path d="M849.31 396.876C849.31 396.876 842.83 405.438 852.232 488.968C861.634 572.499 856.217 633.319 874.066 632.486C874.066 632.486 869.407 650.599 884.574 651.267C899.741 651.935 906.67 652.988 907.851 648.803C909.031 644.618 910.88 625.26 906.761 625.453C906.761 625.453 907.017 630.947 908.738 608.842C910.458 586.737 905.587 482.347 911.81 468.291L936.15 518.086C936.15 518.086 937.24 541.436 941.871 552.232C946.503 563.028 956.317 625.891 956.317 625.891L955.392 635.57C955.392 635.57 988.6 639.525 989.717 633.967C990.834 628.409 990.449 620.167 988.948 617.484C987.447 614.801 987.447 614.801 989.936 609.179C991.039 607.065 991.675 604.739 991.801 602.359C991.927 599.978 991.541 597.598 990.668 595.379C989.103 591.323 984.937 502.042 984.937 502.042C984.937 502.042 977.127 393.66 960.394 388.935C943.662 384.21 849.31 396.876 849.31 396.876Z" fill="#2F2E41"/>
<path d="M878.569 640.535L868.483 660.277C868.483 660.277 851.032 654.898 855.201 670.534C871.953 671.055 888.717 670.042 905.283 667.506C905.283 667.506 912.277 669.933 913.457 665.748C914.638 661.563 909.159 647.365 905.041 647.558C900.922 647.75 878.569 640.535 878.569 640.535Z" fill="#2F2E41"/>
<path d="M957.946 631.321C957.946 631.321 948.116 656.558 952.299 657.739C956.482 658.92 993.809 662.683 996.619 663.928C999.429 665.174 1013.22 665.906 1014.21 657.6C1015.2 649.295 1006.83 646.933 1006.83 646.933C1006.83 646.933 991.603 644.891 986.843 631.348C982.083 617.805 957.946 631.321 957.946 631.321Z" fill="#2F2E41"/>
<path d="M864.74 192.112C880.617 192.112 893.488 179.236 893.488 163.352C893.488 147.469 880.617 134.593 864.74 134.593C848.863 134.593 835.992 147.469 835.992 163.352C835.992 179.236 848.863 192.112 864.74 192.112Z" fill="#FFB8B8"/>
<path d="M849.61 176.975C849.61 176.975 857.175 216.331 854.149 223.899C851.123 231.467 896.514 220.872 896.514 220.872C896.514 220.872 887.436 181.516 888.949 172.434C890.462 163.352 849.61 176.975 849.61 176.975Z" fill="#FFB8B8"/>
<path d="M863.867 127.83C861.476 127.397 859.019 127.505 856.676 128.148C854.8 128.979 853.074 130.112 851.565 131.502C848.827 133.684 845.903 135.622 842.827 137.293C840.258 138.399 837.944 140.022 836.028 142.061C835.219 143.175 834.573 144.398 834.109 145.695C831.161 153.228 830.368 161.435 831.821 169.394C831.984 170.524 832.324 171.623 832.829 172.648C834.401 175.546 837.874 176.688 840.8 178.208C846.355 181.093 850.566 185.95 855.122 190.243C856.815 191.933 858.716 193.399 860.781 194.606C867.281 198.151 875.226 196.995 882.522 195.741C883.039 195.74 883.551 195.637 884.028 195.437C884.505 195.237 884.938 194.945 885.301 194.577C885.665 194.209 885.952 193.773 886.146 193.294C886.34 192.814 886.438 192.301 886.433 191.784L892.192 165.869C893.236 162.03 893.733 158.062 893.668 154.083C893.267 147.792 889.862 139.078 885.247 134.61C879.87 129.403 870.896 128.575 863.867 127.83Z" fill="#2F2E41"/>
<path d="M842.704 226.222C842.704 226.222 844.857 211.149 857.771 210.072C865.075 209.383 872.288 207.939 879.295 205.766C880.371 205.766 894.362 206.843 900.819 213.302C900.819 213.302 905.124 219.762 907.276 215.456C909.429 211.149 909.428 208.996 913.733 211.149C918.038 213.302 918.038 204.689 925.572 205.766C933.105 206.843 952.476 255.291 952.476 255.291L946.019 262.828C946.019 262.828 937.41 320.966 952.476 345.729C967.543 370.492 974 397.407 958.934 402.791C943.867 408.174 838.4 456.623 842.704 426.477C847.009 396.331 843.781 348.959 839.476 347.882C835.171 346.805 811.495 261.751 811.495 261.751C812.447 256.351 814.712 251.268 818.09 246.95C821.468 242.632 825.855 239.211 830.866 236.988C848.085 229.452 842.704 226.222 842.704 226.222Z" fill="#575A88"/>
<path d="M920.19 210.072L925.571 205.766C925.571 205.766 935.257 205.766 936.333 203.613C937.41 201.459 942.791 201.459 947.095 199.306C951.4 197.153 946.019 193.923 951.4 191.77C956.781 189.616 956.781 191.77 956.781 186.386C956.781 181.003 970.772 175.62 971.848 169.16C972.924 162.7 983.686 132.555 983.686 132.555L1004.13 139.014L998.753 177.773C998.753 177.773 998.753 197.153 989.067 210.072C979.381 222.992 957.857 255.291 947.095 256.368C936.333 257.445 920.19 210.072 920.19 210.072Z" fill="#575A88"/>
<path d="M817.952 256.368L811.495 261.751C811.495 261.751 809.342 285.437 809.342 286.514C809.342 287.59 811.495 300.51 809.342 301.587C807.19 302.663 802.885 324.196 803.961 325.273V328.503L788.895 352.189V374.798L824.409 352.189C824.409 352.189 844.857 350.035 841.628 331.733C838.4 313.43 817.952 256.368 817.952 256.368Z" fill="#575A88"/>
<g opacity="0.1">
<g opacity="0.1">
<path opacity="0.1" d="M775.871 303.945C775.746 301.943 775.823 299.934 776.102 297.948C773.463 300.551 771.269 303.569 769.606 306.882C768.786 308.516 768.095 310.211 767.541 311.954C769.79 308.784 772.616 306.067 775.871 303.945Z" fill="black"/>
<path opacity="0.1" d="M682.206 480.618C683.393 478.962 684.735 477.423 686.214 476.022C686.445 474.177 686.841 472.357 687.396 470.583C686.215 472.171 685.174 473.859 684.285 475.628C683.463 477.234 682.768 478.903 682.206 480.618Z" fill="black"/>
<path opacity="0.1" d="M692.451 460.357C693.638 458.701 694.981 457.162 696.46 455.761C696.682 453.964 697.059 452.19 697.588 450.458C696.459 452.001 695.459 453.634 694.598 455.34C693.758 456.956 693.04 458.633 692.451 460.357Z" fill="black"/>
<path opacity="0.1" d="M677.151 490.802C675.969 492.39 674.928 494.078 674.039 495.847C673.213 497.487 672.514 499.187 671.946 500.933C673.159 499.269 674.524 497.721 676.023 496.309C676.232 494.443 676.61 492.6 677.151 490.802Z" fill="black"/>
<path opacity="0.1" d="M761.046 333.139C760.922 331.137 760.999 329.128 761.277 327.142C758.638 329.745 756.444 332.763 754.782 336.076C753.961 337.71 753.271 339.405 752.716 341.148C754.965 337.978 757.791 335.261 761.046 333.139Z" fill="black"/>
<path opacity="0.1" d="M739.726 452.199C739.457 454.222 739.003 456.216 738.367 458.155C739.43 456.669 740.379 455.106 741.207 453.477C742.097 451.73 742.838 449.91 743.422 448.038C742.309 449.527 741.073 450.919 739.726 452.199Z" fill="black"/>
<path opacity="0.1" d="M719.234 492.747C718.967 494.77 718.512 496.764 717.875 498.703C718.948 497.221 719.902 495.657 720.729 494.025C721.614 492.275 722.355 490.456 722.944 488.586C721.831 490.078 720.589 491.47 719.234 492.747Z" fill="black"/>
<path opacity="0.1" d="M729.48 472.459C729.213 474.483 728.758 476.476 728.121 478.415C729.204 476.958 730.176 475.422 731.029 473.819C731.92 472.072 732.661 470.252 733.244 468.38C732.106 469.843 730.847 471.208 729.48 472.459Z" fill="black"/>
<path opacity="0.1" d="M682.885 380.649C693.375 377.208 705.551 385.625 710.062 399.454C710.698 401.453 711.153 403.506 711.421 405.587C713.75 407.408 715.785 409.577 717.454 412.018C718.08 409.308 719.029 406.683 720.281 404.2C720.756 403.275 721.273 402.391 721.803 401.48C720.261 399.344 718.432 397.432 716.367 395.796C716.101 393.72 715.646 391.672 715.008 389.677C710.47 375.849 698.295 367.418 687.831 370.872C681.852 372.83 677.722 378.228 676.118 385.054C677.957 383.027 680.288 381.509 682.885 380.649Z" fill="black"/>
<path opacity="0.1" d="M731.532 391.527C731.412 389.529 731.494 387.525 731.776 385.544C729.129 388.142 726.93 391.161 725.268 394.477C724.445 396.105 723.754 397.797 723.202 399.536C725.457 396.371 728.282 393.655 731.532 391.527Z" fill="black"/>
<path opacity="0.1" d="M746.289 362.319C746.169 360.322 746.251 358.317 746.533 356.336C743.883 358.927 741.683 361.941 740.024 365.256C739.204 366.89 738.513 368.586 737.959 370.328C740.208 367.158 743.034 364.441 746.289 362.319Z" fill="black"/>
<path opacity="0.1" d="M708.988 513.021C708.721 515.048 708.266 517.047 707.629 518.99C709.863 515.895 711.575 512.454 712.698 508.805C711.587 510.316 710.346 511.727 708.988 513.021Z" fill="black"/>
</g>
<path opacity="0.1" d="M719.954 450.295C710.307 445.414 707.372 431.585 713.024 418.831C712.725 419.347 712.426 419.878 712.155 420.421C705.483 433.611 708.241 448.446 718.324 453.545C728.406 458.644 741.9 452.063 748.694 438.873C748.966 438.329 749.224 437.786 749.469 437.228C742.471 449.343 729.67 455.177 719.954 450.295Z" fill="black"/>
<path opacity="0.1" d="M705.605 478.673C695.957 473.792 693.022 459.963 698.674 447.209C698.376 447.739 698.09 448.256 697.805 448.813C691.146 462.003 693.905 476.824 703.974 481.923C714.043 487.022 727.618 480.455 734.276 467.265C734.562 466.721 734.806 466.163 735.051 465.62C728.134 477.735 715.266 483.568 705.605 478.673Z" fill="black"/>
<path opacity="0.1" d="M691.269 507.065C681.608 502.184 678.686 488.355 684.325 475.6C684.026 476.117 683.741 476.647 683.469 477.191C676.797 490.381 679.556 505.216 689.625 510.315C699.694 515.414 713.269 508.846 719.941 495.643C720.212 495.099 720.457 494.555 720.702 493.998C713.785 506.113 700.917 511.892 691.269 507.065Z" fill="black"/>
<path opacity="0.1" d="M681.838 525.721C672.191 520.826 669.255 507.011 674.908 494.243C674.609 494.773 674.31 495.303 674.039 495.847C667.367 509.037 670.125 523.872 680.194 528.957C690.263 534.043 703.838 527.502 710.51 514.299C710.782 513.755 711.04 513.211 711.285 512.654C704.354 524.769 691.486 530.602 681.838 525.721Z" fill="black"/>
<path opacity="0.1" d="M719.764 355.017C720.324 353.909 720.591 352.675 720.539 351.434C720.486 350.193 720.116 348.986 719.465 347.928C718.813 346.871 717.901 345.999 716.816 345.395C715.732 344.791 714.51 344.476 713.269 344.479C711.209 333.551 705.624 323.601 697.37 316.155C698.7 310.964 699.205 305.595 698.865 300.246L672.164 295.691L698.09 294.059C697.625 291.623 696.984 289.224 696.174 286.88C697.184 286.185 698.005 285.25 698.566 284.16C699.22 282.861 699.469 281.394 699.282 279.951C699.095 278.508 698.479 277.154 697.515 276.065C696.551 274.976 695.282 274.201 693.873 273.841C692.464 273.48 690.98 273.551 689.611 274.044C682.745 264.334 672.696 257.339 661.211 254.273C649.726 251.208 637.53 252.265 626.743 257.262C615.956 262.259 607.26 270.88 602.165 281.626C597.07 292.373 595.898 304.566 598.854 316.087C597.281 316.751 595.999 317.957 595.239 319.487C594.573 320.804 594.323 322.292 594.523 323.755C594.724 325.217 595.365 326.584 596.361 327.672C597.358 328.761 598.662 329.52 600.1 329.848C601.538 330.176 603.042 330.057 604.411 329.508C607.018 333.888 610.265 337.853 614.046 341.27C611.293 352.009 612.124 363.354 616.41 373.578L652.216 364.277L620.283 381.084C625.929 390.062 634.238 397.049 644.048 401.069C653.858 405.089 664.678 405.941 674.996 403.505C685.313 401.069 694.611 395.467 701.591 387.482C708.57 379.498 712.881 369.531 713.921 358.974C715.151 358.868 716.334 358.448 717.357 357.756C718.379 357.063 719.208 356.12 719.764 355.017Z" fill="#EFA30E"/>
<path opacity="0.1" d="M719.764 355.017C720.324 353.909 720.591 352.675 720.539 351.434C720.486 350.193 720.116 348.986 719.465 347.928C718.813 346.871 717.901 345.999 716.816 345.395C715.732 344.791 714.51 344.476 713.269 344.479C711.209 333.551 705.624 323.601 697.37 316.155C697.588 315.299 697.778 314.456 697.941 313.599C696.993 314.286 696.114 315.065 695.318 315.924C690.494 321.214 688.021 328.325 683.252 333.669C677.626 339.978 669.201 343.269 660.79 344.153C652.379 345.037 643.913 343.745 635.611 342.127C628.735 340.767 621.764 339.19 614.793 339.856C614.114 339.856 613.434 340.005 612.809 340.114C613.217 340.509 613.624 340.903 614.046 341.284C611.293 352.023 612.124 363.368 616.41 373.591L652.216 364.277L620.283 381.084C625.929 390.062 634.238 397.049 644.048 401.069C653.858 405.089 664.678 405.941 674.996 403.505C685.313 401.069 694.611 395.467 701.591 387.482C708.57 379.498 712.881 369.531 713.921 358.974C715.151 358.868 716.334 358.448 717.357 357.756C718.379 357.063 719.208 356.12 719.764 355.017Z" fill="black"/>
</g>
<path opacity="0.1" d="M507.201 798.76C593.505 798.76 663.468 786.584 663.468 771.565C663.468 756.545 593.505 744.37 507.201 744.37C420.896 744.37 350.933 756.545 350.933 771.565C350.933 786.584 420.896 798.76 507.201 798.76Z" fill="#EFA30E"/>
<path d="M596.027 755.71C595.238 754.458 594.241 753.349 593.079 752.433C587.141 746.817 584.382 738.577 582.915 730.5C581.447 722.423 581.026 714.183 578.675 706.283C577.396 702.232 575.797 698.29 573.892 694.494C572.533 691.584 570.821 685.887 568.334 683.847C567.846 683.425 567.256 683.139 566.622 683.018C565.447 680.519 563.773 678.289 561.703 676.464C557.817 672.942 553.074 670.141 550.479 665.586C549.766 664.006 548.886 662.506 547.856 661.112C546.103 659.181 543.331 658.392 541.714 656.353C539.608 653.715 540.084 649.935 540.355 646.576C540.627 643.217 540.355 639.193 537.448 637.425C535.708 636.351 533.466 636.459 531.659 635.508C528.941 634.148 527.868 630.721 527.922 627.662C527.976 624.602 528.928 621.625 529.172 618.565C529.933 608.829 523.519 599.148 525.992 589.711C526.93 586.135 529.077 583.035 530.667 579.703C531.221 578.595 531.676 577.439 532.026 576.25C536.266 577.931 540.721 579.007 545.261 579.445C537.774 562.638 539.676 543.112 536.184 525.055L536.632 524.443C540.159 519.787 542.162 514.155 542.367 508.316C542.367 501.599 539.228 495.317 537.814 488.736C536.605 483.147 536.659 477.3 535.097 471.807C534.013 468.393 532.573 465.102 530.803 461.989C529.109 458.844 527.329 455.748 525.462 452.702C523.723 446.937 521.979 441.171 520.231 435.406C517.785 427.315 515.271 419.089 510.515 412.1C508.776 409.543 508.246 404.349 505.569 402.799C503.395 401.674 500.929 401.242 498.503 401.562C494.725 399.44 491.41 396.381 490.934 392.193C490.887 391.278 490.979 390.361 491.206 389.473H491.668C497.647 388.929 500.677 383.654 503.789 379.03C508.817 371.552 506.901 361.435 503.789 352.923C503.018 350.237 501.62 347.772 499.712 345.73C495.351 341.651 488.448 342.548 482.822 340.577C480.933 339.924 479.167 338.931 477.237 338.469C473.5 337.599 469.587 338.822 466.162 340.549C462.738 342.276 459.545 344.506 455.958 345.866C452.37 347.226 447.94 348.3 447.057 351.985C446.81 353.226 446.913 354.512 447.356 355.697C448.182 358.061 449.633 360.157 451.555 361.762C450.027 364.913 449.201 368.358 449.133 371.86C449.065 375.362 449.757 378.837 451.162 382.045C452.566 385.253 454.649 388.119 457.267 390.443C459.884 392.768 462.975 394.497 466.326 395.511C467.358 397.17 468.323 398.856 469.206 400.583C470.783 403.629 472.114 407.218 471.571 410.482C470.588 411.527 469.679 412.64 468.853 413.813C464.953 419.252 462.738 425.629 460.7 431.993C457.962 440.118 455.769 448.418 454.137 456.836C450.821 463.893 446.772 470.637 444.366 478.048C440.06 478.053 435.773 477.477 431.62 476.335L420.152 473.738C416.157 472.826 411.999 471.847 408.873 469.21C407.216 467.85 405.925 466.041 404.24 464.695C402.555 463.349 399.171 461.772 397.323 462.887C396.985 463.092 396.671 463.334 396.386 463.607C394.701 460.194 393.097 456.809 391.14 453.504C388.328 448.881 384.142 444.652 378.843 443.769C375.605 443.247 372.292 444.019 369.616 445.917C366.518 448.12 364.575 452.716 366.899 455.816C367.479 456.506 368.111 457.151 368.787 457.747C370.36 459.56 371.766 461.513 372.986 463.58C377.366 469.733 383.919 473.99 391.317 475.492L390.842 476.851C389.877 479.68 387.825 483.093 388.341 486.03L439.352 503.503C442.625 504.832 446.098 505.599 449.625 505.773C451.001 505.762 452.371 505.579 453.702 505.229V507.84V507.949C453.838 525.884 450.984 543.697 450.454 561.619C450.359 564.896 450.454 568.417 452.52 570.974C454.83 573.775 458.933 574.332 462.507 573.693C463.368 573.548 464.21 573.358 465.035 573.122C466.243 577.633 467.115 582.228 467.644 586.869L471.014 611.154C471.447 613.641 471.625 616.165 471.543 618.687C471.149 624.385 468.146 629.484 465.972 634.746C463.798 640.008 462.507 646.304 465.361 651.226C466.258 652.749 467.494 654.041 468.296 655.618C469.315 658.06 469.779 660.698 469.655 663.342C469.863 670.666 470.062 678 470.253 685.343C469.66 685.245 469.051 685.366 468.54 685.683C465.714 687.885 466.027 698.369 465.823 701.619C465.605 707.058 465.823 712.606 465.524 718.099C465.17 725.503 463.981 732.842 461.977 739.978C461.487 742.297 460.417 744.454 458.865 746.246C457.276 747.629 455.38 748.613 453.335 749.115C446.565 751.237 439.486 752.202 432.395 751.971C429.528 751.876 426.538 751.604 423.875 752.691C421.212 753.779 419.065 756.771 420.03 759.49C420.858 761.775 423.372 762.862 425.642 763.719C430.826 765.546 435.829 767.849 440.589 770.599C442.421 771.848 444.352 772.944 446.364 773.876C448.292 774.57 450.287 775.062 452.316 775.345L476.408 779.506C481.341 780.349 487.279 780.866 490.418 776.786C492.116 774.583 492.361 771.592 492.279 768.791C492.144 763.352 491.056 757.818 491.763 752.379C492.3 749.163 493.146 746.008 494.291 742.956C496.691 735.821 499.101 728.692 501.52 721.567C503.938 714.414 506.384 707.194 507.322 699.688C507.662 696.969 507.634 693.868 505.555 692.169C505.03 691.737 504.418 691.422 503.762 691.244C503.68 684.69 502.824 678.122 503.191 671.568C503.286 669.937 503.449 668.305 503.585 666.66C504.845 667.857 505.97 669.189 506.941 670.63C509.265 674.274 510.121 679.088 513.668 681.508C516.684 683.575 521.155 683.466 523.275 686.458C523.956 687.607 524.468 688.848 524.797 690.143C526.027 693.349 527.874 696.282 530.232 698.777C531.041 701.762 532.167 704.652 533.588 707.398C535.59 711.631 537.583 715.851 539.567 720.057C541.607 724.597 543.874 729.031 546.362 733.342C548.26 736.056 549.791 739.01 550.914 742.126C552.83 748.843 549.704 756.213 544.758 761.163C539.812 766.112 533.289 768.954 526.862 771.606C526.185 771.835 525.564 772.206 525.041 772.693C524.484 773.354 524.189 774.196 524.212 775.059C524.212 778.2 526.794 780.893 529.757 781.858C532.785 782.672 535.958 782.788 539.037 782.198C556.404 780.09 573.715 775.848 589.07 767.404C591.367 766.315 593.402 764.742 595.035 762.794C595.825 761.813 596.333 760.636 596.508 759.389C596.683 758.142 596.517 756.871 596.027 755.71Z" fill="url(#paint0_linear_336_512)"/>
<path d="M522.636 450.785C525.534 455.236 528.252 459.795 530.789 464.464C532.565 467.552 534.009 470.82 535.096 474.213C536.672 479.652 536.632 485.458 537.814 491.006C539.173 497.533 542.352 503.761 542.352 510.451C542.145 516.247 540.141 521.836 536.618 526.442C533.105 531.008 529.084 535.159 524.633 538.815C514.372 512.215 508.64 484.082 507.675 455.585C507.539 451.641 507.512 447.576 508.952 443.891C509.835 441.579 514.075 435.243 516.806 437.731C517.798 438.642 518.056 442.749 518.668 444.122C519.813 446.444 521.14 448.672 522.636 450.785Z" fill="#2F2E41"/>
<path opacity="0.1" d="M522.636 450.785C525.534 455.236 528.252 459.795 530.789 464.464C532.565 467.552 534.009 470.82 535.096 474.213C536.672 479.652 536.632 485.458 537.814 491.006C539.173 497.533 542.352 503.761 542.352 510.451C542.145 516.247 540.141 521.836 536.618 526.442C533.105 531.008 529.084 535.159 524.633 538.815C514.372 512.215 508.64 484.082 507.675 455.585C507.539 451.641 507.512 447.576 508.952 443.891C509.835 441.579 514.075 435.243 516.806 437.731C517.798 438.642 518.056 442.749 518.668 444.122C519.813 446.444 521.14 448.672 522.636 450.785Z" fill="black"/>
<path d="M164.39 265.273C153.642 276.015 152.351 280.747 145.896 282.882C139.442 285.017 116.219 297.051 123.516 310.39L143.138 323.362L143.708 323.743L146.711 332.771L117.034 385.639C117.034 385.639 68.1157 363.257 63.319 396.367C58.5222 429.477 61.5661 438.52 60.2752 456.197C58.9843 473.873 60.6964 478.986 56.3888 478.986C52.0813 478.986 50.3828 467.374 50.3828 467.374C50.3828 467.374 50.111 466.843 49.6354 465.851C43.2352 452.539 -0.20713 354.813 69.3794 287.641C69.3794 287.641 101.611 285.52 109.37 248.535C114.724 222.971 133.449 225.174 145.896 230.382C149.942 231.969 153.711 234.186 157.066 236.949C160.085 239.809 162.77 243.003 165.069 246.468C168.616 252.07 170.546 259.1 164.39 265.273Z" fill="#D0D2D5"/>
<path opacity="0.1" d="M143.709 323.743L146.712 332.772L117.035 385.639C117.035 385.639 68.1164 363.257 63.3197 396.367C58.523 429.477 61.5668 438.52 60.2759 456.197C58.985 473.873 60.6971 478.986 56.3896 478.986C52.082 478.986 50.3835 467.374 50.3835 467.374C50.3835 467.374 50.1117 466.844 49.6361 465.851C47.4756 449.316 36.5233 352.597 76.2288 357.737C76.2288 357.737 108.447 372.803 113.597 366.793C117.674 362.034 135.773 334.662 143.138 323.43L143.709 323.743Z" fill="black"/>
<path opacity="0.1" d="M165.069 246.386L145.447 268.7C145.447 268.7 122.66 299.213 117.931 297.921C116.515 297.612 115.072 297.444 113.623 297.418C112.046 297.297 110.535 296.731 109.266 295.786C107.996 294.841 107.021 293.555 106.452 292.078C105.883 290.601 105.744 288.993 106.051 287.44C106.359 285.887 107.099 284.453 108.188 283.304C115.961 275.145 130.283 259.657 131.22 256.217C132.158 252.777 141.276 237.697 145.842 230.314C149.887 231.901 153.657 234.118 157.011 236.882C160.048 239.734 162.752 242.923 165.069 246.386Z" fill="black"/>
<path d="M720.238 567.411C716.909 574.074 699.855 599.066 692.395 609.985L688.903 615.125C688.903 615.125 687.544 624.154 665.273 612.963C643.001 601.772 119.723 380.825 119.723 380.825L116.176 370.165L141.994 331.48L715.523 553.215C715.523 553.215 724.546 558.804 720.238 567.411Z" fill="#454B69"/>
<path opacity="0.1" d="M692.395 609.985L688.903 615.125C688.903 615.125 687.544 624.154 665.273 612.963C643.001 601.772 119.723 380.825 119.723 380.825L116.176 370.165L692.395 609.985Z" fill="black"/>
<path d="M376.763 465.66C371.45 464.79 365.552 465.212 361.421 468.666C358.924 470.781 357.346 473.784 357.019 477.042C356.665 480.808 358.853 485.282 362.631 485.567C363.54 485.578 364.448 485.518 365.348 485.391C367.735 485.38 370.117 485.58 372.469 485.989C377.097 486.424 381.761 485.743 386.072 484.001C390.382 482.26 394.212 479.51 397.24 475.981C400.488 471.902 396.208 470.134 392.376 469.318C387.131 468.203 382.008 466.504 376.763 465.66Z" fill="#FBBEBE"/>
<path d="M467.643 588.46L471.013 612.419C471.442 614.892 471.615 617.403 471.53 619.911C471.136 625.554 468.133 630.613 465.972 635.834C463.811 641.055 462.493 647.31 465.36 652.151C466.244 653.66 467.48 654.952 468.282 656.516C469.301 658.934 469.765 661.55 469.641 664.171L470.565 698.165C481.054 698.881 491.582 698.822 502.063 697.988C502.473 698.008 502.877 697.883 503.204 697.635C503.481 697.284 503.621 696.844 503.598 696.398C504.06 688.443 502.674 680.475 503.123 672.52C503.286 669.61 503.694 666.714 503.748 663.791C503.911 651.947 498.068 640.348 499.834 628.641C500.389 625.687 501.115 622.767 502.009 619.898C507.593 599.501 506.411 578.072 505.175 557.009C505.196 556.67 505.1 556.334 504.903 556.057C504.703 555.856 504.447 555.719 504.169 555.663C498.224 553.878 491.938 553.551 485.84 554.711C479.743 555.871 474.014 558.483 469.138 562.326C467.657 563.522 463.92 564.678 462.942 566.106C461.583 568.091 463.363 570.076 464.151 572.184C465.897 577.468 467.068 582.925 467.643 588.46Z" fill="#3F3D56"/>
<path opacity="0.1" d="M467.643 588.46L471.013 612.419C471.442 614.892 471.615 617.403 471.53 619.911C471.136 625.554 468.133 630.613 465.972 635.834C463.811 641.055 462.493 647.31 465.36 652.151C466.244 653.66 467.48 654.952 468.282 656.516C469.301 658.934 469.765 661.55 469.641 664.171L470.565 698.165C481.054 698.881 491.582 698.822 502.063 697.988C502.473 698.008 502.877 697.883 503.204 697.635C503.481 697.284 503.621 696.844 503.598 696.398C504.06 688.443 502.674 680.475 503.123 672.52C503.286 669.61 503.694 666.714 503.748 663.791C503.911 651.947 498.068 640.348 499.834 628.641C500.389 625.687 501.115 622.767 502.009 619.898C507.593 599.501 506.411 578.072 505.175 557.009C505.196 556.67 505.1 556.334 504.903 556.057C504.703 555.856 504.447 555.719 504.169 555.663C498.224 553.878 491.938 553.551 485.84 554.711C479.743 555.871 474.014 558.483 469.138 562.326C467.657 563.522 463.92 564.678 462.942 566.106C461.583 568.091 463.363 570.076 464.151 572.184C465.897 577.468 467.068 582.925 467.643 588.46Z" fill="black"/>
<path d="M530.653 581.24C529.063 584.544 526.93 587.617 525.978 591.166C523.505 600.535 529.906 610.202 529.145 619.802C528.9 622.835 527.962 625.785 527.894 628.817C527.826 631.85 528.941 635.222 531.631 636.622C533.439 637.547 535.708 637.452 537.406 638.513C540.274 640.267 540.6 644.251 540.314 647.596C540.029 650.941 539.553 654.68 541.673 657.291C543.29 659.317 546.062 660.105 547.801 662.023C548.836 663.399 549.716 664.886 550.424 666.456C553.02 670.997 557.762 673.771 561.648 677.334C565.534 680.896 568.823 686.118 567.084 691.054C565.806 694.67 562.219 696.9 558.767 698.6C552.47 701.715 545.824 704.066 538.969 705.603C538.233 705.826 537.455 705.868 536.7 705.725C535.935 705.446 535.253 704.978 534.716 704.366C530.707 700.436 526.563 696.316 524.715 691.026C524.386 689.744 523.873 688.517 523.193 687.382C521.073 684.404 516.602 684.513 513.586 682.46C510.053 680.053 509.197 675.28 506.887 671.677C504.577 668.074 501.193 665.925 498.734 662.757C494.575 657.481 493.556 650.438 490.58 644.414C489.317 641.858 487.7 639.464 486.694 636.799C485.679 633.605 485.054 630.299 484.833 626.955C482.917 611.073 478.038 595.082 481.109 579.363C481.789 575.909 482.835 572.564 483.27 569.002C484.017 562.842 482.835 556.533 483.746 550.387C483.768 549.615 483.964 548.859 484.319 548.173C484.674 547.488 485.18 546.892 485.797 546.43C486.532 546.1 487.33 545.937 488.135 545.954C496.19 545.523 504.267 545.705 512.295 546.498C516.371 546.892 520.937 547.722 523.383 551.053C525.462 553.909 525.353 557.729 526.019 561.197C526.848 565.466 529.009 567.792 531.278 571.137C533.547 574.482 532.324 577.786 530.653 581.24Z" fill="#3F3D56"/>
<path d="M499.305 691.734C501.452 691.734 503.83 691.598 505.488 692.957C507.553 694.657 507.58 697.771 507.254 700.422C506.303 707.874 503.871 715.04 501.438 722.179L494.209 743.404C493.065 746.433 492.219 749.566 491.682 752.759C490.975 758.198 492.062 763.638 492.198 769.077C492.198 771.796 492.021 774.815 490.323 777.004C487.252 780.961 481.259 780.498 476.327 779.723L452.262 775.644C450.231 775.374 448.236 774.886 446.31 774.189C444.302 773.261 442.37 772.175 440.535 770.939C435.773 768.217 430.769 765.941 425.587 764.141C423.332 763.298 420.804 762.223 419.989 759.953C419.024 757.233 421.171 754.242 423.835 753.154C426.498 752.066 429.474 752.338 432.355 752.42C439.438 752.645 446.51 751.689 453.281 749.591C455.32 749.091 457.211 748.112 458.798 746.736C460.41 744.923 461.508 742.712 461.977 740.331C464.028 733.244 465.25 725.944 465.619 718.575C465.904 713.136 465.714 707.697 465.932 702.258C466.067 699.035 465.755 688.66 468.581 686.444C470.742 684.785 479.629 689.368 482.55 690.034C488.043 691.294 493.671 691.864 499.305 691.734Z" fill="#2F2E41"/>
<path d="M578.579 706.854C580.93 714.645 581.296 722.885 582.818 730.894C584.34 738.903 587.031 747.076 592.969 752.651C594.125 753.569 595.121 754.671 595.918 755.914C596.419 757.078 596.589 758.358 596.409 759.613C596.229 760.868 595.707 762.049 594.899 763.025C593.258 764.96 591.224 766.522 588.933 767.608C573.592 775.984 556.321 780.213 538.914 782.307C535.838 782.883 532.672 782.767 529.647 781.967C526.684 780.961 524.062 778.296 524.116 775.168C524.088 774.31 524.378 773.472 524.932 772.816C525.46 772.332 526.085 771.966 526.766 771.741C533.18 769.104 539.689 766.234 544.648 761.367C549.608 756.499 552.72 749.129 550.804 742.52C549.669 739.425 548.129 736.494 546.225 733.804C543.74 729.529 541.473 725.132 539.43 720.628L533.451 708.078C531.699 704.406 529.932 700.626 529.633 696.574C537.144 696.911 544.644 695.708 551.674 693.039C554.955 691.7 558.012 689.866 560.737 687.6C563.047 685.669 565.153 682.066 568.265 684.581C570.765 686.594 572.342 692.264 573.809 695.133C575.716 698.903 577.311 702.823 578.579 706.854Z" fill="#2F2E41"/>
<path d="M490.96 395.212C491.558 400.433 496.613 403.873 501.436 405.94L470.903 415.69C472.874 411.909 471.284 407.286 469.327 403.452C467.733 400.416 465.917 397.502 463.892 394.736C463.593 394.314 463.253 393.784 463.47 393.294C463.664 392.975 463.969 392.737 464.326 392.628C470.604 389.827 477.072 386.931 483.935 385.911C485.918 385.625 489.669 384.837 491.15 386.849C492.631 388.861 490.674 392.805 490.96 395.212Z" fill="#FBBEBE"/>
<path opacity="0.1" d="M490.96 395.212C491.558 400.433 496.613 403.873 501.436 405.94L470.903 415.69C472.874 411.909 471.284 407.286 469.327 403.452C467.733 400.416 465.917 397.502 463.892 394.736C463.593 394.314 463.253 393.784 463.47 393.294C463.664 392.975 463.969 392.737 464.326 392.628C470.604 389.827 477.072 386.931 483.935 385.911C485.918 385.625 489.669 384.837 491.15 386.849C492.631 388.861 490.674 392.805 490.96 395.212Z" fill="black"/>
<path d="M473.214 399.44C486.438 399.44 497.157 388.714 497.157 375.481C497.157 362.249 486.438 351.522 473.214 351.522C459.991 351.522 449.271 362.249 449.271 375.481C449.271 388.714 459.991 399.44 473.214 399.44Z" fill="#FBBEBE"/>
<path d="M452.464 572.646C454.788 575.434 458.878 575.977 462.452 575.366C470.809 574.006 477.644 567.846 485.824 565.63C495.852 562.91 506.465 566.405 515.936 570.688C525.407 574.971 534.824 580.206 545.179 580.941C535.816 560.055 541.17 534.926 532.215 513.864C530.027 508.71 526.97 503.747 526.481 498.172C525.869 491.251 529.321 484.575 529.851 477.694C530.34 471.562 528.492 465.456 526.725 459.609C524.542 452.43 522.359 445.251 520.176 438.071C517.73 430.035 515.216 421.863 510.474 414.955C508.721 412.412 508.191 407.259 505.527 405.722C499.712 402.364 490.893 406.593 484.588 406.824C478.283 407.055 472.535 411.542 468.852 416.614C464.952 421.971 462.737 428.349 460.699 434.658C457.454 444.052 455.03 453.711 453.456 463.526C453.253 464.994 453.076 466.463 452.94 467.945C451.581 481.909 453.565 495.956 453.674 509.988V510.084C453.81 527.883 450.956 545.573 450.426 563.359C450.372 566.609 450.453 570.158 452.464 572.646Z" fill="#2F2E41"/>
<path opacity="0.1" d="M453.714 510.002C458.402 508.819 462.642 505.787 466.284 502.469C469.438 499.644 472.239 496.448 474.627 492.951C477.633 488.249 480.048 483.193 481.815 477.898C486.846 463.739 490.043 448.992 491.327 434.019C491.68 429.94 491.789 425.561 489.357 422.325C487.991 420.572 486.073 419.333 483.914 418.809C481.755 418.286 479.483 418.509 477.467 419.442C474.26 421.006 472.181 424.174 470.252 427.207C466.433 433.217 462.588 439.308 460.128 445.998C459.041 448.963 458.239 452.009 457.179 454.986C456.101 457.924 454.858 460.797 453.456 463.594C453.252 465.062 453.076 466.531 452.94 468.013C451.676 481.978 453.606 495.969 453.714 510.002Z" fill="black"/>
<path d="M489.29 419.701C491.722 422.937 491.614 427.356 491.274 431.381C489.992 446.354 486.795 461.101 481.762 475.26C480.009 480.599 477.594 485.698 474.574 490.435C472.182 493.929 469.381 497.125 466.23 499.954C461.61 504.169 455.985 507.935 449.72 507.99C446.195 507.824 442.722 507.065 439.448 505.746L388.423 488.368C387.907 485.459 389.958 482.059 390.923 479.258L393.641 471.195C394.415 468.965 395.312 466.558 397.337 465.348C399.362 464.138 402.568 465.796 404.253 467.143C405.938 468.489 407.216 470.256 408.873 471.63C412.012 474.241 416.157 475.22 420.152 476.117L431.607 478.687C435.76 479.825 440.047 480.397 444.353 480.387C447.546 470.624 453.62 462.03 457.058 452.348C458.118 449.384 458.92 446.325 460.021 443.36C462.466 436.67 466.326 430.592 470.144 424.569C472.06 421.55 474.139 418.382 477.359 416.804C479.381 415.86 481.664 415.632 483.833 416.158C486.001 416.685 487.926 417.934 489.29 419.701Z" fill="#2F2E41"/>
<path d="M480.852 380.893C480.671 379.318 480.181 377.793 479.412 376.406C479.011 375.712 478.4 375.163 477.667 374.841C476.934 374.518 476.117 374.437 475.335 374.611C472.944 375.359 472.142 379.058 469.642 379.18C467.957 379.262 466.747 377.548 466.217 375.944C465.687 374.339 465.402 372.504 464.138 371.375C463.258 370.717 462.249 370.253 461.176 370.015C455.374 368.18 449.381 364.794 447.452 359.015C446.998 357.842 446.889 356.563 447.139 355.33C448.022 351.672 452.574 350.571 456.04 349.252C459.505 347.933 462.834 345.676 466.231 343.962C469.628 342.249 473.569 341.039 477.306 341.909C479.202 342.506 481.066 343.2 482.89 343.99C488.516 345.948 495.405 345.037 499.767 349.102C501.673 351.119 503.071 353.562 503.844 356.227C506.888 364.685 508.817 374.72 503.776 382.144C500.664 386.727 497.647 391.962 491.668 392.519C484.711 393.104 481.953 386.795 480.852 380.893Z" fill="#2F2E41"/>
<g opacity="0.1">
<path opacity="0.1" d="M470.224 373.061C469.694 371.457 469.409 369.621 468.159 368.492C467.279 367.834 466.269 367.37 465.197 367.132C459.381 365.297 453.402 361.911 451.459 356.132C451.016 354.956 450.912 353.679 451.16 352.447C451.293 351.866 451.538 351.317 451.88 350.829C449.665 351.794 447.735 353.073 447.192 355.33C446.942 356.563 447.05 357.842 447.504 359.015C449.434 364.794 455.426 368.179 461.229 370.015C462.301 370.253 463.311 370.717 464.191 371.375C465.455 372.504 465.726 374.326 466.27 375.944C466.814 377.562 468.009 379.262 469.694 379.18C471.379 379.098 472.195 377.562 473.268 376.27C471.787 376.08 470.713 374.557 470.224 373.061Z" fill="black"/>
<path opacity="0.1" d="M495.662 389.596C488.677 390.235 485.919 383.871 484.791 378.01C484.642 376.439 484.18 374.913 483.432 373.523C483.03 372.831 482.419 372.283 481.686 371.961C480.954 371.638 480.137 371.557 479.356 371.728C478.116 372.33 477.074 373.274 476.353 374.448C476.976 374.508 477.578 374.711 478.11 375.041C478.643 375.371 479.092 375.82 479.424 376.352C480.193 377.738 480.683 379.263 480.864 380.839C481.965 386.699 484.723 393.077 491.735 392.424C494.506 392.118 497.064 390.79 498.909 388.698C497.884 389.177 496.787 389.48 495.662 389.596Z" fill="black"/>
</g>
<defs>
<linearGradient id="paint0_linear_336_512" x1="488.518" y1="784.437" x2="470.508" y2="338.271" gradientUnits="userSpaceOnUse">
<stop stop-color="#808080" stop-opacity="0.25"/>
<stop offset="0.54" stop-color="#808080" stop-opacity="0.12"/>
<stop offset="1" stop-color="#808080" stop-opacity="0.1"/>
</linearGradient>
</defs>
</svg>
